<?xml version="1.0" encoding="UTF-8"?>
<svg width="211px" height="263px" viewBox="0 0 211 263" version="1.1" xmlns="http://www.w3.org/2000/svg" xmlns:xlink="http://www.w3.org/1999/xlink">
    <title>file-zipper-svgrepo-com</title>
    <g id="Page-1" stroke="none" stroke-width="1" fill="none" fill-rule="evenodd">
        <g id="logo" transform="translate(-151, -125)" fill="#FFFFFF" fill-rule="nonzero">
            <g id="file-zipper-svgrepo-com" transform="translate(151, 125)">
                <path d="M118.687492,13.1500412 L128.012369,3.85154805 C125.539714,1.38552944 122.184816,4.59437881e-05 118.687492,4.59437881e-05 L118.687492,13.1500412 Z M197.812457,92.0500126 L210.999951,92.0500126 C210.999951,88.5623709 209.609989,85.2176696 207.137334,82.7515195 L197.812457,92.0500126 Z M120.124929,84.8699837 L131.874986,78.9000174 L131.874986,78.9000174 L120.124929,84.8699837 Z M125.887864,90.6167946 L131.874986,78.9000174 L125.887864,90.6167946 Z M79.1250103,144.649994 C79.1250103,137.387251 73.2207054,131.499998 65.9375162,131.499998 C58.654327,131.499998 52.7500222,137.387251 52.7500222,144.649994 L79.1250103,144.649994 Z M52.7500222,184.099979 C52.7500222,191.362722 58.654327,197.249975 65.9375162,197.249975 C73.2207054,197.249975 79.1250103,191.362722 79.1250103,184.099979 L52.7500222,184.099979 Z M59.3437692,92.0500126 C52.06058,92.0500126 46.1562752,97.9375285 46.1562752,105.200008 C46.1562752,112.46275 52.06058,118.350003 59.3437692,118.350003 L59.3437692,92.0500126 Z M72.5312632,118.350003 C79.8147162,118.350003 85.7187573,112.46275 85.7187573,105.200008 C85.7187573,97.9375285 79.8147162,92.0500126 72.5312632,92.0500126 L72.5312632,118.350003 Z M59.3437692,52.6000269 C52.06058,52.6000269 46.1562752,58.4875428 46.1562752,65.7500221 C46.1562752,73.0125015 52.06058,78.9000174 59.3437692,78.9000174 L59.3437692,52.6000269 Z M72.5312632,78.9000174 C79.8147162,78.9000174 85.7187573,73.0125015 85.7187573,65.7500221 C85.7187573,58.4875428 79.8147162,52.6000269 72.5312632,52.6000269 L72.5312632,78.9000174 Z M183.411713,246.983257 L177.424591,235.266611 L177.424591,235.266611 L183.411713,246.983257 Z M194.937583,235.490161 L206.68764,241.460259 L194.937583,235.490161 Z M16.0622819,235.490161 L4.31209287,241.460259 L4.31209287,241.460259 L16.0622819,235.490161 Z M27.5885473,246.983257 L33.5755378,235.266611 L33.5755378,235.266611 L27.5885473,246.983257 Z M27.5885473,16.0166086 L21.6015569,4.29983139 L21.6015569,4.29983139 L27.5885473,16.0166086 Z M16.0622819,27.510099 L4.31209287,21.5401326 L4.31209287,21.5401326 L16.0622819,27.510099 Z M105.499998,13.1500412 L105.499998,71.0100202 L131.874986,71.0100202 L131.874986,13.1500412 L105.499998,13.1500412 Z M139.787483,105.200008 L197.812457,105.200008 L197.812457,78.9000174 L139.787483,78.9000174 L139.787483,105.200008 Z M105.499926,71.0100202 C105.499926,74.4754385 105.489448,77.8652442 105.722867,80.7177412 C105.969473,83.7236986 106.551042,87.2707783 108.374872,90.83995 L131.874986,78.9000174 C132.26138,79.6562736 132.12423,79.955699 132.010818,78.576133 C131.885536,77.042975 131.874986,74.9093883 131.874986,71.0100202 L105.499926,71.0100202 Z M139.787483,78.9000174 C135.877391,78.9000174 133.737061,78.8897604 132.199399,78.7645724 C130.816031,78.651877 131.116705,78.5147225 131.874986,78.9000174 L119.900742,102.33344 C123.479828,104.152085 127.037814,104.731605 130.052475,104.977115 C132.912842,105.210528 136.312578,105.20008 139.787483,105.20008 L139.787483,78.9000174 Z M108.374872,90.83995 C110.902915,95.7885563 114.938288,99.8120603 119.900742,102.33344 L131.874986,78.9000174 L131.874986,78.9000174 L108.374872,90.83995 Z M52.7500222,144.649994 L52.7500222,184.099979 L79.1250103,184.099979 L79.1250103,144.649994 L52.7500222,144.649994 Z M59.3437692,118.350003 L72.5312632,118.350003 L72.5312632,92.0500126 L59.3437692,92.0500126 L59.3437692,118.350003 Z M59.3437692,78.9000174 L72.5312632,78.9000174 L72.5312632,52.6000269 L59.3437692,52.6000269 L59.3437692,78.9000174 Z M118.687492,4.59437881e-05 L55.387521,4.59437881e-05 L55.387521,26.3000364 L118.687492,26.3000364 L118.687492,4.59437881e-05 Z M4.60748023e-05,55.2300259 L4.60748023e-05,207.769971 L26.3750341,207.769971 L26.3750341,55.2300259 L4.60748023e-05,55.2300259 Z M55.387521,262.999951 L155.612476,262.999951 L155.612476,236.69996 L55.387521,236.69996 L55.387521,262.999951 Z M210.999951,207.769971 L210.999951,92.0500126 L184.624963,92.0500126 L184.624963,207.769971 L210.999951,207.769971 Z M207.137334,82.7515195 L128.012369,3.85154805 L109.362615,22.4485343 L188.48758,101.348506 L207.137334,82.7515195 Z M155.612476,262.999975 C162.781197,262.999975 168.950307,263.010471 174.00903,262.597561 C179.223365,262.172816 184.408688,261.235221 189.398835,258.699902 L177.424591,235.266611 C176.77181,235.597991 175.443829,236.093745 171.862106,236.385675 C168.12477,236.68944 163.216385,236.69996 155.612476,236.69996 L155.612476,262.999975 Z M184.624963,207.769971 C184.624963,215.352258 184.614413,220.246686 184.309781,223.973395 C184.017019,227.544934 183.519851,228.869138 183.187526,229.520063 L206.68764,241.460259 C209.230189,236.4843 210.170457,231.313722 210.596413,226.114214 C211.010501,221.069876 210.999975,214.918308 210.999975,207.769971 L184.624963,207.769971 Z M189.398835,258.699902 C196.843176,254.917964 202.894917,248.883431 206.68764,241.460259 L183.187526,229.520063 C181.922845,231.994892 179.906477,234.005526 177.424591,235.266611 L189.398835,258.699902 Z M2.29621221e-05,207.769971 C2.29621221e-05,214.918308 -0.0102401705,221.069876 0.403187767,226.114214 C0.829143825,231.313722 1.7696759,236.4843 4.31209287,241.460259 L27.8123391,229.520063 C27.4801461,228.869138 26.9832414,227.544934 26.6906109,223.973395 C26.3853204,220.246686 26.3750341,215.352258 26.3750341,207.769971 L2.29621221e-05,207.769971 Z M55.387521,236.69996 C47.7842713,236.69996 42.874831,236.68944 39.1384184,236.385675 C35.5557719,236.093745 34.2275275,235.597991 33.5755378,235.266611 L21.6015569,258.699902 C26.5914409,261.235221 31.7770273,262.172816 36.9905712,262.597561 C42.050217,263.010471 48.2194586,262.999975 55.387521,262.999975 L55.387521,236.69996 Z M4.31209287,241.460259 C8.10507991,248.883431 14.1573484,254.917964 21.6015569,258.699902 L33.5755378,235.266611 C31.0941789,234.005526 29.076756,231.994892 27.8123391,229.520063 L4.31209287,241.460259 Z M55.387521,2.2896829e-05 C48.2194586,2.2896829e-05 42.050217,-0.0102110525 36.9905712,0.402041298 C31.7770273,0.826786144 26.5914409,1.7646438 21.6015569,4.29983139 L33.5755378,27.7332544 C34.2275275,27.402006 35.5557719,26.9065142 39.1384184,26.6147158 C42.874831,26.3102934 47.7842713,26.3000364 55.387521,26.3000364 L55.387521,2.2896829e-05 Z M26.3750341,55.2300259 C26.3750341,47.6483962 26.3853204,42.752916 26.6906109,39.0271278 C26.9832414,35.4546686 27.4801461,34.1302011 27.8123391,33.4800653 L4.31209287,21.5401326 C1.7696759,26.5158278 0.829143825,31.686669 0.403187767,36.8853881 C-0.0102401705,41.9306468 2.29621221e-05,48.082346 2.29621221e-05,55.2300259 L26.3750341,55.2300259 Z M21.6015569,4.29983139 C14.1573484,8.08203302 8.10507991,14.1170918 4.31209287,21.5401326 L27.8123391,33.4800653 C29.076756,31.0057622 31.0941789,28.9940759 33.5755378,27.7332544 L21.6015569,4.29983139 Z" id="Shape"></path>
            </g>
        </g>
    </g>
</svg>